<svg width="227" height="58" viewBox="0 0 227 58" fill="none" xmlns="http://www.w3.org/2000/svg">
<rect x="2" y="2" width="223" height="54" rx="8" fill="white" stroke="#FF7F3E" stroke-width="4"/>
<path d="M30.5568 37L25.4091 19.5455H30.6932L33.0795 30.2841H33.2159L36.0455 19.5455H40.2045L43.0341 30.3182H43.1705L45.5568 19.5455H50.8409L45.6932 37H41.1591L38.1932 27.25H38.0568L35.0909 37H30.5568ZM54.87 37H49.7564L55.5178 19.5455H61.995L67.7564 37H62.6428L58.8246 24.3523H58.6882L54.87 37ZM53.9155 30.1136H63.5291V33.6591H53.9155V30.1136ZM69.4375 37V19.5455H76.9716C78.267 19.5455 79.4006 19.7812 80.3722 20.2528C81.3438 20.7244 82.0994 21.4034 82.6392 22.2898C83.179 23.1761 83.4489 24.2386 83.4489 25.4773C83.4489 26.7273 83.1705 27.7812 82.6136 28.6392C82.0625 29.4972 81.2869 30.1449 80.2869 30.5824C79.2926 31.0199 78.1307 31.2386 76.8011 31.2386H72.3011V27.5568H75.8466C76.4034 27.5568 76.8778 27.4886 77.2699 27.3523C77.6676 27.2102 77.9716 26.9858 78.1818 26.679C78.3977 26.3722 78.5057 25.9716 78.5057 25.4773C78.5057 24.9773 78.3977 24.571 78.1818 24.2585C77.9716 23.9403 77.6676 23.7074 77.2699 23.5597C76.8778 23.4062 76.4034 23.3295 75.8466 23.3295H74.1761V37H69.4375ZM79.6648 28.9886L84.0284 37H78.8807L74.6193 28.9886H79.6648ZM95.7983 19.5455H100.537V30.7273C100.537 32.0568 100.219 33.2074 99.5824 34.179C98.9517 35.1449 98.071 35.892 96.9403 36.4205C95.8097 36.9432 94.4972 37.2045 93.0028 37.2045C91.4972 37.2045 90.179 36.9432 89.0483 36.4205C87.9176 35.892 87.0369 35.1449 86.4062 34.179C85.7812 33.2074 85.4688 32.0568 85.4688 30.7273V19.5455H90.2074V30.3182C90.2074 30.858 90.3267 31.3409 90.5653 31.767C90.804 32.1875 91.1335 32.517 91.554 32.7557C91.9801 32.9943 92.4631 33.1136 93.0028 33.1136C93.5483 33.1136 94.0313 32.9943 94.4517 32.7557C94.8722 32.517 95.2017 32.1875 95.4403 31.767C95.679 31.3409 95.7983 30.858 95.7983 30.3182V19.5455ZM117.891 19.5455V37H113.937L107.63 27.8295H107.528V37H102.789V19.5455H106.812L113.016 28.6818H113.153V19.5455H117.891ZM131.468 25.3068C131.394 25.0057 131.278 24.7415 131.119 24.5142C130.96 24.2812 130.761 24.0852 130.522 23.9261C130.289 23.7614 130.016 23.6392 129.704 23.5597C129.397 23.4744 129.059 23.4318 128.69 23.4318C127.894 23.4318 127.215 23.6222 126.653 24.0028C126.096 24.3835 125.67 24.9318 125.374 25.6477C125.085 26.3636 124.94 27.2273 124.94 28.2386C124.94 29.2614 125.079 30.1364 125.357 30.8636C125.636 31.5909 126.05 32.1477 126.602 32.5341C127.153 32.9205 127.837 33.1136 128.656 33.1136C129.377 33.1136 129.977 33.0085 130.454 32.7983C130.937 32.5881 131.298 32.2898 131.536 31.9034C131.775 31.517 131.894 31.0625 131.894 30.5398L132.712 30.625H128.724V27.25H136.462V29.6705C136.462 31.2614 136.124 32.6222 135.448 33.7528C134.778 34.8778 133.852 35.7415 132.67 36.3438C131.494 36.9403 130.144 37.2386 128.621 37.2386C126.923 37.2386 125.431 36.8778 124.147 36.1562C122.863 35.4347 121.86 34.4062 121.138 33.071C120.423 31.7358 120.065 30.1477 120.065 28.3068C120.065 26.8636 120.283 25.5852 120.721 24.4716C121.164 23.358 121.778 22.4176 122.562 21.6506C123.346 20.8778 124.252 20.2955 125.281 19.9034C126.309 19.5057 127.411 19.3068 128.587 19.3068C129.621 19.3068 130.582 19.4545 131.468 19.75C132.36 20.0398 133.147 20.4545 133.829 20.9943C134.516 21.5284 135.07 22.1619 135.491 22.8949C135.911 23.6278 136.167 24.4318 136.258 25.3068H131.468ZM147.987 37H142.874L148.635 19.5455H155.112L160.874 37H155.76L151.942 24.3523H151.805L147.987 37ZM147.033 30.1136H156.646V33.6591H147.033V30.1136ZM162.555 37V19.5455H174.827V23.3636H167.293V26.3636H174.077V30.1818H167.293V37H162.555ZM181.309 19.5455V37H176.57V19.5455H181.309ZM190.305 30.5227H193.987L195.316 32.1932L197.566 34.75L200.498 38.2955H196.305L194.225 35.875L192.827 33.8636L190.305 30.5227ZM200.464 28.2727C200.464 30.2159 200.086 31.8551 199.33 33.1903C198.575 34.5199 197.555 35.5284 196.271 36.2159C194.987 36.8977 193.555 37.2386 191.975 37.2386C190.384 37.2386 188.947 36.8949 187.663 36.2074C186.384 35.5142 185.367 34.5028 184.612 33.1733C183.862 31.8381 183.487 30.2045 183.487 28.2727C183.487 26.3295 183.862 24.6932 184.612 23.3636C185.367 22.0284 186.384 21.0199 187.663 20.3381C188.947 19.6506 190.384 19.3068 191.975 19.3068C193.555 19.3068 194.987 19.6506 196.271 20.3381C197.555 21.0199 198.575 22.0284 199.33 23.3636C200.086 24.6932 200.464 26.3295 200.464 28.2727ZM195.589 28.2727C195.589 27.2273 195.45 26.3466 195.171 25.6307C194.898 24.9091 194.492 24.3636 193.952 23.9943C193.418 23.6193 192.759 23.4318 191.975 23.4318C191.191 23.4318 190.529 23.6193 189.989 23.9943C189.455 24.3636 189.049 24.9091 188.771 25.6307C188.498 26.3466 188.362 27.2273 188.362 28.2727C188.362 29.3182 188.498 30.2017 188.771 30.9233C189.049 31.6392 189.455 32.1847 189.989 32.5597C190.529 32.929 191.191 33.1136 191.975 33.1136C192.759 33.1136 193.418 32.929 193.952 32.5597C194.492 32.1847 194.898 31.6392 195.171 30.9233C195.45 30.2017 195.589 29.3182 195.589 28.2727Z" fill="#FF7F3E"/>
</svg>
