<svg width="278" height="123" viewBox="0 0 278 123" fill="none" xmlns="http://www.w3.org/2000/svg">
<rect x="28" y="2" width="223" height="54" rx="8" fill="white" stroke="#FF7F3E" stroke-width="4"/>
<path d="M128 71H151V111.5C151 117.851 145.851 123 139.5 123V123C133.149 123 128 117.851 128 111.5V71Z" fill="#FF7F3E"/>
<path d="M13 71H36V111.5C36 117.851 30.8513 123 24.5 123V123C18.1487 123 13 117.851 13 111.5V71Z" fill="white"/>
<path d="M105 71H128V111.5C128 117.851 122.851 123 116.5 123V123C110.149 123 105 117.851 105 111.5V71Z" fill="white"/>
<path d="M59 71H82V111.5C82 117.851 76.8513 123 70.5 123V123C64.1487 123 59 117.851 59 111.5V71Z" fill="white"/>
<path d="M151 71H174V111.5C174 117.851 168.851 123 162.5 123V123C156.149 123 151 117.851 151 111.5V71Z" fill="white"/>
<path d="M197 71H220V111.5C220 117.851 214.851 123 208.5 123V123C202.149 123 197 117.851 197 111.5V71Z" fill="white"/>
<path d="M36 71H59V111.5C59 117.851 53.8513 123 47.5 123V123C41.1487 123 36 117.851 36 111.5V71Z" fill="#FF7F3E"/>
<path d="M82 71H105V111.5C105 117.851 99.8513 123 93.5 123V123C87.1487 123 82 117.851 82 111.5V71Z" fill="#FF7F3E"/>
<path d="M174 71H197V111.5C197 117.851 191.851 123 185.5 123V123C179.149 123 174 117.851 174 111.5V71Z" fill="#FF7F3E"/>
<path d="M220 71H243V111.5C243 117.851 237.851 123 231.5 123V123C225.149 123 220 117.851 220 111.5V71Z" fill="#FF7F3E"/>
<path d="M243 71H266V111.5C266 117.851 260.851 123 254.5 123V123C248.149 123 243 117.851 243 111.5V71Z" fill="white"/>
<path d="M59 58H76V68H59V58Z" fill="white"/>
<path d="M203 58H220V68H203V58Z" fill="white"/>
<path d="M56.5568 37L51.4091 19.5455H56.6932L59.0795 30.2841H59.2159L62.0455 19.5455H66.2045L69.0341 30.3182H69.1705L71.5568 19.5455H76.8409L71.6932 37H67.1591L64.1932 27.25H64.0568L61.0909 37H56.5568ZM80.87 37H75.7564L81.5178 19.5455H87.995L93.7564 37H88.6428L84.8246 24.3523H84.6882L80.87 37ZM79.9155 30.1136H89.5291V33.6591H79.9155V30.1136ZM95.4375 37V19.5455H102.972C104.267 19.5455 105.401 19.7812 106.372 20.2528C107.344 20.7244 108.099 21.4034 108.639 22.2898C109.179 23.1761 109.449 24.2386 109.449 25.4773C109.449 26.7273 109.17 27.7812 108.614 28.6392C108.063 29.4972 107.287 30.1449 106.287 30.5824C105.293 31.0199 104.131 31.2386 102.801 31.2386H98.3011V27.5568H101.847C102.403 27.5568 102.878 27.4886 103.27 27.3523C103.668 27.2102 103.972 26.9858 104.182 26.679C104.398 26.3722 104.506 25.9716 104.506 25.4773C104.506 24.9773 104.398 24.571 104.182 24.2585C103.972 23.9403 103.668 23.7074 103.27 23.5597C102.878 23.4062 102.403 23.3295 101.847 23.3295H100.176V37H95.4375ZM105.665 28.9886L110.028 37H104.881L100.619 28.9886H105.665ZM121.798 19.5455H126.537V30.7273C126.537 32.0568 126.219 33.2074 125.582 34.179C124.952 35.1449 124.071 35.892 122.94 36.4205C121.81 36.9432 120.497 37.2045 119.003 37.2045C117.497 37.2045 116.179 36.9432 115.048 36.4205C113.918 35.892 113.037 35.1449 112.406 34.179C111.781 33.2074 111.469 32.0568 111.469 30.7273V19.5455H116.207V30.3182C116.207 30.858 116.327 31.3409 116.565 31.767C116.804 32.1875 117.134 32.517 117.554 32.7557C117.98 32.9943 118.463 33.1136 119.003 33.1136C119.548 33.1136 120.031 32.9943 120.452 32.7557C120.872 32.517 121.202 32.1875 121.44 31.767C121.679 31.3409 121.798 30.858 121.798 30.3182V19.5455ZM143.891 19.5455V37H139.937L133.63 27.8295H133.528V37H128.789V19.5455H132.812L139.016 28.6818H139.153V19.5455H143.891ZM157.468 25.3068C157.394 25.0057 157.278 24.7415 157.119 24.5142C156.96 24.2812 156.761 24.0852 156.522 23.9261C156.289 23.7614 156.016 23.6392 155.704 23.5597C155.397 23.4744 155.059 23.4318 154.69 23.4318C153.894 23.4318 153.215 23.6222 152.653 24.0028C152.096 24.3835 151.67 24.9318 151.374 25.6477C151.085 26.3636 150.94 27.2273 150.94 28.2386C150.94 29.2614 151.079 30.1364 151.357 30.8636C151.636 31.5909 152.05 32.1477 152.602 32.5341C153.153 32.9205 153.837 33.1136 154.656 33.1136C155.377 33.1136 155.977 33.0085 156.454 32.7983C156.937 32.5881 157.298 32.2898 157.536 31.9034C157.775 31.517 157.894 31.0625 157.894 30.5398L158.712 30.625H154.724V27.25H162.462V29.6705C162.462 31.2614 162.124 32.6222 161.448 33.7528C160.778 34.8778 159.852 35.7415 158.67 36.3438C157.494 36.9403 156.144 37.2386 154.621 37.2386C152.923 37.2386 151.431 36.8778 150.147 36.1562C148.863 35.4347 147.86 34.4062 147.138 33.071C146.423 31.7358 146.065 30.1477 146.065 28.3068C146.065 26.8636 146.283 25.5852 146.721 24.4716C147.164 23.358 147.778 22.4176 148.562 21.6506C149.346 20.8778 150.252 20.2955 151.281 19.9034C152.309 19.5057 153.411 19.3068 154.587 19.3068C155.621 19.3068 156.582 19.4545 157.468 19.75C158.36 20.0398 159.147 20.4545 159.829 20.9943C160.516 21.5284 161.07 22.1619 161.491 22.8949C161.911 23.6278 162.167 24.4318 162.258 25.3068H157.468ZM173.987 37H168.874L174.635 19.5455H181.112L186.874 37H181.76L177.942 24.3523H177.805L173.987 37ZM173.033 30.1136H182.646V33.6591H173.033V30.1136ZM188.555 37V19.5455H200.827V23.3636H193.293V26.3636H200.077V30.1818H193.293V37H188.555ZM207.309 19.5455V37H202.57V19.5455H207.309ZM216.305 30.5227H219.987L221.316 32.1932L223.566 34.75L226.498 38.2955H222.305L220.225 35.875L218.827 33.8636L216.305 30.5227ZM226.464 28.2727C226.464 30.2159 226.086 31.8551 225.33 33.1903C224.575 34.5199 223.555 35.5284 222.271 36.2159C220.987 36.8977 219.555 37.2386 217.975 37.2386C216.384 37.2386 214.947 36.8949 213.663 36.2074C212.384 35.5142 211.367 34.5028 210.612 33.1733C209.862 31.8381 209.487 30.2045 209.487 28.2727C209.487 26.3295 209.862 24.6932 210.612 23.3636C211.367 22.0284 212.384 21.0199 213.663 20.3381C214.947 19.6506 216.384 19.3068 217.975 19.3068C219.555 19.3068 220.987 19.6506 222.271 20.3381C223.555 21.0199 224.575 22.0284 225.33 23.3636C226.086 24.6932 226.464 26.3295 226.464 28.2727ZM221.589 28.2727C221.589 27.2273 221.45 26.3466 221.171 25.6307C220.898 24.9091 220.492 24.3636 219.952 23.9943C219.418 23.6193 218.759 23.4318 217.975 23.4318C217.191 23.4318 216.529 23.6193 215.989 23.9943C215.455 24.3636 215.049 24.9091 214.771 25.6307C214.498 26.3466 214.362 27.2273 214.362 28.2727C214.362 29.3182 214.498 30.2017 214.771 30.9233C215.049 31.6392 215.455 32.1847 215.989 32.5597C216.529 32.929 217.191 33.1136 217.975 33.1136C218.759 33.1136 219.418 32.929 219.952 32.5597C220.492 32.1847 220.898 31.6392 221.171 30.9233C221.45 30.2017 221.589 29.3182 221.589 28.2727Z" fill="#FF7F3E"/>
<g filter="url(#filter0_d_840_21)">
<rect x="13" y="68" width="253" height="23" fill="white"/>
</g>
<rect y="68" width="278" height="23" rx="4" fill="white"/>
<defs>
<filter id="filter0_d_840_21" x="3" y="62" width="273" height="43" filterUnits="userSpaceOnUse" color-interpolation-filters="sRGB">
<feFlood flood-opacity="0" result="BackgroundImageFix"/>
<feColorMatrix in="SourceAlpha" type="matrix" values="0 0 0 0 0 0 0 0 0 0 0 0 0 0 0 0 0 0 127 0" result="hardAlpha"/>
<feOffset dy="4"/>
<feGaussianBlur stdDeviation="5"/>
<feComposite in2="hardAlpha" operator="out"/>
<feColorMatrix type="matrix" values="0 0 0 0 0 0 0 0 0 0 0 0 0 0 0 0 0 0 0.25 0"/>
<feBlend mode="normal" in2="BackgroundImageFix" result="effect1_dropShadow_840_21"/>
<feBlend mode="normal" in="SourceGraphic" in2="effect1_dropShadow_840_21" result="shape"/>
</filter>
</defs>
</svg>
