<svg width="767" height="182" viewBox="0 0 767 182" fill="none" xmlns="http://www.w3.org/2000/svg">
<path d="M74.2543 36.9091H100.568V107.275C100.568 115.407 98.6328 122.491 94.7621 128.528C90.8913 134.53 85.4936 139.182 78.5689 142.484C71.6442 145.751 63.6009 147.385 54.4389 147.385C45.1705 147.385 37.0739 145.751 30.1491 142.484C23.2244 139.182 17.8445 134.53 14.0092 128.528C10.174 122.491 8.25639 115.407 8.25639 107.275V36.9091H34.6236V104.984C34.6236 108.749 35.4403 112.104 37.0739 115.052C38.7429 117.999 41.0689 120.308 44.0518 121.977C47.0348 123.646 50.4972 124.48 54.4389 124.48C58.3807 124.48 61.8253 123.646 64.7727 121.977C67.7557 120.308 70.0817 117.999 71.7507 115.052C73.4197 112.104 74.2543 108.749 74.2543 104.984V36.9091ZM117.094 36.9091H149.747L177.446 104.452H178.724L206.423 36.9091H239.076V146H213.401V78.9901H212.496L186.288 145.308H169.882L143.675 78.6172H142.769V146H117.094V36.9091ZM255.522 146V36.9091H281.889V83.0383H283.327L319.389 36.9091H350.444L311.772 85.5952L351.136 146H319.602L292.436 103.12L281.889 116.437V146H255.522ZM360.844 36.9091H393.497L421.196 104.452H422.474L450.173 36.9091H482.826V146H457.151V78.9901H456.246L430.038 145.308H413.632L387.425 78.6172H386.519V146H360.844V36.9091Z" fill="black"/>
<path d="M499.272 146V36.9091H544.336C552.504 36.9091 559.553 38.5071 565.483 41.7031C571.449 44.8636 576.048 49.2848 579.279 54.9666C582.511 60.6129 584.126 67.1825 584.126 74.6754C584.126 82.2038 582.475 88.7912 579.173 94.4375C575.906 100.048 571.236 104.398 565.163 107.488C559.091 110.577 551.882 112.122 543.537 112.122H515.732V91.348H538.636C542.614 91.348 545.934 90.6555 548.597 89.2706C551.296 87.8857 553.338 85.9503 554.723 83.4645C556.108 80.9432 556.8 78.0135 556.8 74.6754C556.8 71.3018 556.108 68.3899 554.723 65.9396C553.338 63.4538 551.296 61.5362 548.597 60.1868C545.898 58.8374 542.578 58.1626 538.636 58.1626H525.639V146H499.272ZM633.705 147.545C625.111 147.545 617.725 145.787 611.546 142.271C605.402 138.72 600.661 133.784 597.323 127.463C594.021 121.107 592.369 113.738 592.369 105.357C592.369 96.941 594.021 89.5724 597.323 83.2514C600.661 76.8949 605.402 71.9588 611.546 68.4432C617.725 64.892 625.111 63.1165 633.705 63.1165C642.298 63.1165 649.667 64.892 655.811 68.4432C661.99 71.9588 666.73 76.8949 670.033 83.2514C673.371 89.5724 675.04 96.941 675.04 105.357C675.04 113.738 673.371 121.107 670.033 127.463C666.73 133.784 661.99 138.72 655.811 142.271C649.667 145.787 642.298 147.545 633.705 147.545ZM633.865 127.889C636.99 127.889 639.635 126.93 641.801 125.013C643.968 123.095 645.619 120.432 646.755 117.023C647.927 113.614 648.513 109.672 648.513 105.197C648.513 100.652 647.927 96.6747 646.755 93.2656C645.619 89.8565 643.968 87.1932 641.801 85.2756C639.635 83.358 636.99 82.3991 633.865 82.3991C630.633 82.3991 627.899 83.358 625.661 85.2756C623.46 87.1932 621.773 89.8565 620.601 93.2656C619.465 96.6747 618.896 100.652 618.896 105.197C618.896 109.672 619.465 113.614 620.601 117.023C621.773 120.432 623.46 123.095 625.661 125.013C627.899 126.93 630.633 127.889 633.865 127.889ZM759.814 89.1641L735.898 89.8033C735.649 88.0987 734.974 86.5895 733.873 85.2756C732.773 83.9261 731.334 82.8786 729.559 82.1328C727.819 81.3516 725.795 80.9609 723.486 80.9609C720.468 80.9609 717.893 81.5646 715.763 82.772C713.667 83.9794 712.638 85.6129 712.673 87.6726C712.638 89.2706 713.277 90.6555 714.591 91.8274C715.94 92.9993 718.337 93.9403 721.782 94.6506L737.549 97.6335C745.716 99.196 751.789 101.788 755.766 105.411C759.779 109.033 761.803 113.827 761.839 119.793C761.803 125.403 760.134 130.286 756.831 134.441C753.564 138.596 749.09 141.827 743.408 144.136C737.726 146.408 731.228 147.545 723.912 147.545C712.229 147.545 703.014 145.148 696.267 140.354C689.555 135.524 685.72 129.061 684.761 120.964L710.489 120.325C711.057 123.308 712.531 125.581 714.91 127.143C717.29 128.706 720.326 129.487 724.019 129.487C727.357 129.487 730.074 128.866 732.169 127.623C734.264 126.38 735.329 124.729 735.365 122.669C735.329 120.822 734.513 119.349 732.915 118.248C731.317 117.112 728.813 116.224 725.404 115.585L711.128 112.868C702.925 111.376 696.817 108.624 692.805 104.612C688.792 100.563 686.803 95.4141 686.839 89.1641C686.803 83.6953 688.259 79.0256 691.206 75.1548C694.154 71.2486 698.344 68.2656 703.778 66.206C709.211 64.1463 715.621 63.1165 723.007 63.1165C734.086 63.1165 742.822 65.4425 749.214 70.0945C755.606 74.7109 759.14 81.0675 759.814 89.1641Z" fill="#FF2424"/>
<path d="M74 36H150L157 53H74V36Z" fill="#FF2424"/>
<rect x="213" y="129" width="69" height="17" fill="#FF2424"/>
<path d="M319 34L393.5 35L400.5 52H306L319 34Z" fill="#FF2424"/>
</svg>
